<?xml version="1.0" encoding="UTF-8"?>
<svg width="300px" height="300px" viewBox="0 0 300 300" version="1.1" xmlns="http://www.w3.org/2000/svg" xmlns:xlink="http://www.w3.org/1999/xlink">
    <!-- Generator: Sketch 55.2 (78181) - https://sketchapp.com -->
    <title>sidebar-cake-hightea</title>
    <desc>Created with Sketch.</desc>
    <g id="sidebar-cake-hightea" stroke="none" stroke-width="1" fill="none" fill-rule="evenodd" stroke-linecap="round" stroke-linejoin="round">
        <path d="M111.816288,181.594895 C94.6135551,176.391756 89.9735551,150.826233 101.845009,137.332802 C113.718148,123.837686 135.742974,122.918791 151.330474,131.86664 C166.917974,140.814488 176.742567,157.430477 182.185125,174.559023 C184.675416,182.397453 186.405299,190.613558 185.767974,198.812802 C184.405648,216.324081 172.134602,231.65193 156.933206,240.449721 C141.731811,249.245826 123.913671,252.373442 106.397334,253.658209 C85.0991946,255.221174 62.4050086,253.907744 44.5531481,242.188035 C23.0459388,228.065709 12.9734969,201.807221 7.99797369,176.563733 C4.11838066,156.875767 2.73919462,135.52536 11.7679737,117.602686 C18.0721016,105.088849 28.852683,95.4750116 39.8153574,86.7463488 C54.0557062,75.4093721 86.0046016,57.9571047 86.0046016,57.9571047 C128.417102,40.3766977 180.21245,47.9875116 215.77623,77.0229186 C245.722102,101.472279 263.712218,142.898442 252.845648,179.999895 C241.98245,217.103035 197.484311,243.110302 162.057102,227.630709" id="Stroke-1" stroke="#231F20" stroke-width="8"></path>
        <path d="M263.949782,46 C259.099026,48.4245349 254.246584,50.8524419 249.394142,53.2769767 C260.311293,53.2769767 253.032631,46 263.949782,46 Z" id="Stroke-3" stroke="#231F20" stroke-width="8"></path>
        <path d="M255.162276,94.7882849 C268.434834,88.81125 281.705706,82.8342151 294.976578,76.8571802" id="Stroke-5" stroke="#231F20" stroke-width="8"></path>
    </g>
</svg>