<?xml version="1.0" encoding="UTF-8"?>
<svg width="300px" height="300px" viewBox="0 0 300 300" version="1.1" xmlns="http://www.w3.org/2000/svg" xmlns:xlink="http://www.w3.org/1999/xlink">
    <!-- Generator: Sketch 55.2 (78181) - https://sketchapp.com -->
    <title>sidebar-home</title>
    <desc>Created with Sketch.</desc>
    <g id="sidebar-home" stroke="none" stroke-width="1" fill="none" fill-rule="evenodd" stroke-linecap="round" stroke-linejoin="round">
        <path d="M254.204107,292.661561 C260.711505,226.209653 263.683586,159.288382 263.098557,92.407341 C220.280812,76.4824855 181.620292,45.6989017 153.319309,5 C118.834453,39.476474 85.0519678,74.9084393 52.0104071,111.253988 C46.7887308,116.998671 41.4430083,123.001503 38.6737597,130.72422 C36.1241066,137.840116 35.9967077,145.774046 36,153.485029 C36.0084418,185.344798 35.9749158,219.117225 40.9317366,250.531098 C47.5950314,292.760462 45.4761875,289.914104 81.8116788,292.95659 C96.3301181,294.17138 253.969424,295.056994 254.204107,292.661561 Z" id="Stroke-1" stroke="#231F20" stroke-width="8"></path>
        <path d="M178.795055,288.644306 C178.909043,244.731936 179.023031,200.816214 179.13702,156.903844 C192.225575,156.939046 205.31413,156.974249 218.402685,157.009451 C219.096673,200.895 219.788985,244.780549 220.481297,288.666098" id="Stroke-3" stroke="#231F20" stroke-width="8"></path>
        <path d="M83.7379158,143.789977 C83.9122511,163.466393 84.0865863,183.144486 84.2609216,202.820902 C99.2302857,208.12304 115.203754,209.532809 130.686066,206.919457 C132.922251,184.673272 131.708609,161.961075 127.120575,140.207723 C112.732887,141.766682 98.3435227,143.323965 83.9541586,144.881249" id="Stroke-5" stroke="#231F20" stroke-width="8"></path>
    </g>
</svg>