<?xml version="1.0" encoding="UTF-8"?>
<svg width="300px" height="300px" viewBox="0 0 300 300" version="1.1" xmlns="http://www.w3.org/2000/svg" xmlns:xlink="http://www.w3.org/1999/xlink">
    <!-- Generator: Sketch 55.2 (78181) - https://sketchapp.com -->
    <title>sidebar-matcha</title>
    <desc>Created with Sketch.</desc>
    <g id="sidebar-matcha" stroke="none" stroke-width="1" fill="none" fill-rule="evenodd" stroke-linecap="round" stroke-linejoin="round">
        <path d="M126.674983,72.141407 C110.851436,49.7625116 95.0278895,27.3802442 79.204343,4.99966279 C62.4871919,16.5507674 45.7700407,28.1018721 29.0545756,39.6529767 C25.2896337,42.2528605 21.059343,45.8643721 21.7624244,50.3846628 C22.1586453,52.9221628 24.0638779,54.9184419 25.8746919,56.737686 C48.135564,79.0946628 70.396436,101.45164 92.6556221,123.80693 C103.311436,107.583791 113.96725,91.3572791 124.623064,75.1341395 C174.35132,81.0369884 216.258006,112.188384 253.501087,145.664837 C263.312192,154.484547 273.234576,164.073093 277.530622,176.544779 C281.824983,189.016465 278.523703,205.108093 266.859634,211.268907 C254.362657,217.866407 239.31132,210.778267 227.025099,203.798035" id="Stroke-1" stroke="#231F20" stroke-width="8"></path>
        <path d="M126.768052,91.5029535 C150.000087,105.539291 173.233808,119.575628 196.465843,133.613651 C213.070029,143.645628 229.815843,153.783826 243.890959,167.132256 C251.906424,174.73464 259.200262,183.744872 261.741134,194.496791 C264.283692,205.248709 260.93689,217.980047 251.543924,223.795221 C242.150959,229.610395 227.200785,225.042895 224.922936,214.231965" id="Stroke-3" stroke="#231F20" stroke-width="8"></path>
        <path d="M116.38268,97.2262384 C126.546169,109.890134 129.881169,126.590424 133.568552,142.515134 C143.576924,185.747052 158.237099,227.726238 177.232099,267.552343 C182.069366,277.697285 191.807971,289.406878 202.55989,284.534203 C209.469308,281.403215 211.93768,272.875192 212.040529,265.537517 C212.141692,258.199843 210.821517,250.602517 213.665878,243.682983" id="Stroke-5" stroke="#231F20" stroke-width="8"></path>
        <path d="M88.352157,116.899029 C116.529366,159.456529 117.347099,214.733564 140.257099,260.344494 C148.016285,275.790366 160.10018,291.170483 177.166343,293.91368 C194.232506,296.655192 213.436576,278.501529 205.674017,263.057343" id="Stroke-7" stroke="#231F20" stroke-width="8"></path>
        <path d="M103.914198,98.1483372 C151.2685,145.53636 217.17943,175.703105 250.797512,233.650837 C244.871058,235.416128 238.20443,234.520837 232.954081,231.251593" id="Stroke-9" stroke="#231F20" stroke-width="8"></path>
        <path d="M112.090174,101.499017 C148.362093,143.041517 160.673605,202.075064 199.531919,241.208203 C204.003314,245.71332 209.263779,250.118959 215.586453,250.671983 C221.909128,251.22332 228.971977,245.964541 227.897965,239.709308 C226.984128,234.401634 221.029012,231.064948 220.126977,225.755587" id="Stroke-11" stroke="#231F20" stroke-width="8"></path>
        <path d="M114.228924,99.9380756 C148.678227,149.472436 183.700785,199.64075 229.967587,238.369238 C233.285727,241.147843 239.055378,243.515052 241.186541,239.746738 C239.382471,237.135052 237.578401,234.523366 235.774331,231.909994" id="Stroke-13" stroke="#231F20" stroke-width="8"></path>
    </g>
</svg>