<?xml version="1.0" encoding="UTF-8"?>
<svg width="300px" height="300px" viewBox="0 0 300 300" version="1.1" xmlns="http://www.w3.org/2000/svg" xmlns:xlink="http://www.w3.org/1999/xlink">
    <!-- Generator: Sketch 55.2 (78181) - https://sketchapp.com -->
    <title>sidebar-info</title>
    <desc>Created with Sketch.</desc>
    <g id="sidebar-info" stroke="none" stroke-width="1" fill="none" fill-rule="evenodd">
        <path d="M128.732667,177.4795 C127.814333,164.5095 126.942667,150.847833 132.581,139.1295 C138.217667,127.4145 152.861,118.947833 164.519333,124.706167 C176.476,130.612833 178.434333,146.542833 178.819333,159.8745 C179.549333,185.162833 180.272667,210.571167 177.134333,235.6745 C176.011,244.6645 174.312667,253.816167 169.687667,261.6045 C165.062667,269.392833 156.962667,275.652833 147.904333,275.837833 C120.627667,276.386167 130.094333,196.736167 128.732667,177.4795 Z" id="Stroke-1" stroke="#231F20" stroke-width="8"></path>
        <path d="M158.984833,90.4173333 C146.554833,94.0006667 132.3215,85.5823333 128.409833,73.2523333 C124.4965,60.9223333 130.493167,46.5323333 141.409833,39.5923333 C151.7665,33.0073333 166.169833,33.1073333 176.043167,40.399 C185.9165,47.6906667 190.204833,61.9423333 185.384833,73.2306667 C180.563167,84.5173333 166.729833,91.2956667 155.0315,87.584" id="Stroke-3" stroke="#231F20" stroke-width="8"></path>
        <path d="M194.324333,9.392 C207.201,12.507 219.971,16.8353333 230.979333,24.2053333 C252.721,38.7603333 265.322667,63.5536667 273.717667,88.3336667 C283.829333,118.180333 289.206,150.102 285.137667,181.352 C281.069333,212.600333 266.937667,243.153667 242.907667,263.540333 C217.224333,285.330333 182.476,293.928667 148.796,294.370333 C134.119333,294.565333 119.254333,293.305333 105.369333,288.543667 C44.0376667,267.512 5.37933333,169.815333 14.2676667,108.433667 C26.2126667,25.9403333 122.959333,-7.87966667 194.324333,9.392 Z" id="Stroke-5" stroke="#231F20" stroke-width="8"></path>
    </g>
</svg>