<?xml version="1.0" encoding="UTF-8"?>
<svg width="300px" height="300px" viewBox="0 0 300 300" version="1.1" xmlns="http://www.w3.org/2000/svg" xmlns:xlink="http://www.w3.org/1999/xlink">
    <!-- Generator: Sketch 55.2 (78181) - https://sketchapp.com -->
    <title>sidebar-workshop-event</title>
    <desc>Created with Sketch.</desc>
    <g id="sidebar-workshop-event" stroke="none" stroke-width="1" fill="none" fill-rule="evenodd">
        <path d="M107.690703,221.553622 C113.06582,203.664669 129.663262,189.259087 148.30082,188.019843 C165.496808,186.87839 182.369076,196.733331 191.982913,211.036064 C201.598436,225.33711 204.510238,243.435134 202.512273,260.550192 C202.009831,264.856355 201.176924,269.229959 198.973262,272.964552 C168.054541,325.35339 92.700064,271.445424 107.690703,221.553622 Z" id="Stroke-1" stroke="#231F20" stroke-width="8"></path>
        <path d="M220.262297,216.681622 C208.277878,214.282378 196.52782,207.538192 191.15439,196.558657 C188.739971,191.623599 187.730029,186.132145 186.925785,180.694645 C185.38811,170.288366 184.585552,159.280169 188.691076,149.593831 C193.777878,137.590866 205.757238,129.624297 218.311541,126.105517 C246.363983,118.241797 280.390087,133.355517 289.137297,161.146622 C292.934273,173.213657 291.804622,187.029122 284.901948,197.630983 C272.13689,217.243076 241.209738,220.87482 220.262297,216.681622 Z" id="Stroke-3" stroke="#231F20" stroke-width="8"></path>
        <path d="M90.7248605,8.45976744 C101.15643,69.5435465 118.807651,129.389767 143.192942,186.357907" id="Stroke-5" stroke="#231F20" stroke-width="8"></path>
        <path d="M9.65468605,70.4845291 C32.0167209,68.3213314 53.8055,77.2051105 74.5168953,85.9118547 C114.454279,102.69982 154.389977,119.487785 194.325674,136.277436" id="Stroke-7" stroke="#231F20" stroke-width="8"></path>
        <path d="M8.02950581,68.6602267 C64.007936,101.740459 123.872703,128.23668 185.996773,147.430634" id="Stroke-9" stroke="#231F20" stroke-width="8"></path>
        <path d="M87.654907,6.02461047 C109.435256,22.1196105 118.661302,49.7674012 126.664965,75.6397849 C137.814791,111.685773 148.966302,147.730076 160.117814,183.776064" id="Stroke-11" stroke="#231F20" stroke-width="8"></path>
        <path d="M139.248099,208.447308 C142.473506,206.712366 146.005773,205.459634 149.659436,205.208413 C156.457576,204.743064 163.07868,207.78132 168.506064,211.903703 C181.040134,221.426494 188.495831,237.277017 187.843331,253.004459 C187.694959,256.587308 187.135192,260.210622 185.599203,263.451203 C182.71775,269.524343 176.663157,273.613006 170.257866,275.64975 C163.852576,277.686494 157.03589,277.936029 150.316994,278.167017 C145.756238,278.32382 140.944262,278.426669 136.931471,276.248297 C134.046645,274.680273 131.871645,272.077017 129.983273,269.391145 C116.412285,250.079169 115.997517,220.954401 139.248099,208.447308 Z" id="Stroke-13" stroke="#231F20" stroke-width="8"></path>
        <path d="M203.41414,157.11832 C204.882686,153.88111 206.715419,150.740006 209.327105,148.328959 C213.672047,144.317855 219.709779,142.727913 225.565419,141.905122 C234.848791,140.600122 244.548616,140.918785 253.265477,144.368436 C261.980651,147.816401 269.60664,154.692099 272.557221,163.589366 C273.877395,167.573494 274.243267,171.813901 274.305651,176.012157 C274.40007,182.184773 273.73914,188.721576 270.11414,193.719017 C264.236581,201.818785 252.88443,203.187855 242.882802,203.501459 C233.843907,203.784715 224.531872,203.732448 216.13536,200.370471 C196.943093,192.685471 195.833674,173.830413 203.41414,157.11832 Z" id="Stroke-15" stroke="#231F20" stroke-width="8"></path>
    </g>
</svg>