<?xml version="1.0" encoding="UTF-8"?>
<svg width="300px" height="300px" viewBox="0 0 300 300" version="1.1" xmlns="http://www.w3.org/2000/svg" xmlns:xlink="http://www.w3.org/1999/xlink">
    <!-- Generator: Sketch 55.2 (78181) - https://sketchapp.com -->
    <title>info-facebook</title>
    <desc>Created with Sketch.</desc>
    <g id="info-facebook" stroke="none" stroke-width="1" fill="none" fill-rule="evenodd" stroke-linecap="round" stroke-linejoin="round">
        <path d="M24.6003333,232.996 C26.9503333,242.086 29.7403333,251.436 35.9553333,258.474333 C41.582,264.846 49.4786667,268.697667 57.3003333,272.031 C113.480333,295.974333 177.495333,301.092667 236.767,286.382667 C252.625333,282.447667 269.140333,276.441 278.900333,263.339333 C288.193667,250.862667 289.595333,234.356 290.127,218.809333 C291.978667,164.741 287.428667,110.456 276.602,57.4493333 C273.767,43.5726667 269.942,28.8126667 259.228667,19.5476667 C247.912,9.761 231.765333,8.51266667 216.825333,7.72766667 C180.535333,5.81933333 144.112,3.89266667 107.778667,5.76266667 C84.8003333,6.946 35.217,4.88266667 19.1753333,24.421 C3.282,43.7793333 8.857,97.6543333 9.32033333,121.201 C10.0636667,158.889333 15.1636667,196.497667 24.6003333,232.996 Z" id="Stroke-1" stroke="#231F20" stroke-width="8"></path>
        <path d="M195.155333,70.9223333 C184.100333,78.739 177.757,92.7523333 179.178667,106.217333 C179.895333,113.002333 182.008667,121.064 177.038667,125.739 C174.988667,127.665667 172.155333,128.465667 169.440333,129.202333 C162.878667,130.980667 156.318667,132.760667 149.757,134.537333 C140.373667,137.080667 128.637,143.277333 130.905333,152.730667 C132.500333,159.375667 140.533667,162.242333 147.367,162.074 C154.198667,161.907333 161.115333,159.867333 167.767,161.437333 C176.928667,163.599 183.333667,172.272333 185.917,181.324 C188.498667,190.377333 188.047,199.969 188.295333,209.379 C188.640333,222.459 190.385333,235.502333 193.487,248.214 C195.145333,255.007333 201.452,263.437333 207.173667,259.414 C215.510333,231.014 217.885333,200.877333 214.103667,171.520667 C223.437,169.129 232.818667,166.720667 241.643667,162.852333 C252.282,158.190667 263.348667,146.590667 257.547,136.527333 C253.007,128.659 241.925333,128.695667 232.840333,128.787333 C226.648667,128.847333 220.233667,128.410667 214.738667,125.555667 C209.242,122.700667 204.880333,116.884 205.442,110.717333 C206.092,103.579 212.790333,98.4956667 219.500333,95.959 C275.383667,74.849 226.350333,48.8656667 195.155333,70.9223333 Z" id="Stroke-3" stroke="#231F20" stroke-width="8"></path>
    </g>
</svg>