<?xml version="1.0" encoding="UTF-8"?>
<svg width="300px" height="300px" viewBox="0 0 300 300" version="1.1" xmlns="http://www.w3.org/2000/svg" xmlns:xlink="http://www.w3.org/1999/xlink">
    <!-- Generator: Sketch 55.2 (78181) - https://sketchapp.com -->
    <title>info-instagram</title>
    <desc>Created with Sketch.</desc>
    <g id="info-instagram" stroke="none" stroke-width="1" fill="none" fill-rule="evenodd" stroke-linecap="round" stroke-linejoin="round">
        <path d="M25.2341761,72.9736932 C18.3615057,125.267614 19.8988352,178.660568 29.7703693,230.473352 C33.4019602,249.526023 39.269517,270.066591 55.219517,281.103068 C66.1521875,288.666136 79.9865057,290.383068 93.2358807,291.457386 C125.656563,294.085511 158.222244,294.186023 190.750028,294.285359 C218.117131,294.363977 249.964403,292.243352 265.581563,269.771648 C273.721335,258.057955 275.441563,243.178977 276.614744,228.964034 C281.454119,170.309886 281.127869,111.228977 275.63929,52.6308523 C274.532017,40.7985227 272.44929,27.5853977 262.902358,20.5067614 C257.715313,16.6609659 251.13429,15.3296023 244.769119,14.2371591 C181.970938,3.44784091 36.7353125,-14.5469886 25.2341761,72.9736932 Z" id="Stroke-1" stroke="#231F20" stroke-width="8"></path>
        <path d="M103.679011,168.350409 C91.6456591,154.191489 86.0763409,135.148705 86.6975341,116.57717 C87.0369659,106.387625 89.2811705,95.9525682 95.2096932,87.6579091 C100.147932,80.7473409 107.374864,75.7184773 115.129068,72.2533068 C137.238273,62.3751818 164.801455,65.3905227 183.692648,80.5380795 C202.583841,95.6872841 211.502989,122.541943 204.571,145.743591 C191.55725,189.297966 133.227705,203.119102 103.679011,168.350409 Z" id="Stroke-3" stroke="#231F20" stroke-width="8"></path>
        <path d="M205.015062,112.443517 L271.98529,112.443517" id="Stroke-5" stroke="#231F20" stroke-width="8"></path>
        <path d="M18.9996705,117.631386 C39.6918295,116.578489 60.4515455,116.871784 81.1058068,118.504682" id="Stroke-7" stroke="#231F20" stroke-width="8"></path>
        <path d="M206.759347,44.3187273 C201.918324,51.2902614 203.551222,61.937875 210.257472,67.1413977 C216.963722,72.3432727 227.68054,71.2771932 233.231733,64.8576477 C239.114119,58.0525341 238.621449,47.9338409 237.10554,39.0674205 C236.820483,37.4032159 236.449744,35.6236705 235.223835,34.4587273 C234.106676,33.3959432 232.496847,33.0614545 230.966108,32.8637273 C222.121108,31.7185568 212.897131,33.7304318 205.334063,38.4610568" id="Stroke-9" stroke="#231F20" stroke-width="8"></path>
    </g>
</svg>