<?xml version="1.0" encoding="UTF-8"?>
<svg width="300px" height="300px" viewBox="0 0 300 300" version="1.1" xmlns="http://www.w3.org/2000/svg" xmlns:xlink="http://www.w3.org/1999/xlink">
    <!-- Generator: Sketch 55.2 (78181) - https://sketchapp.com -->
    <title>index-address</title>
    <desc>Created with Sketch.</desc>
    <g id="index-address" stroke="none" stroke-width="1" fill="none" fill-rule="evenodd">
        <path d="M50.5639294,132.291406 C46.1917529,110.172935 45.1341059,86.9524647 51.4612235,65.3116412 C57.7883412,43.6725235 72.2218118,23.7478176 92.6855765,14.2852882 C103.502576,9.28534706 115.467635,7.35087647 127.325224,6.14993529 C161.214282,2.7177 198.588459,6.04587647 223.847459,28.8995824 C245.1744,48.1948176 253.942635,78.5834059 252.485812,107.307053 C251.030694,136.028994 240.503694,163.507347 228.320282,189.559582 C212.336165,223.740347 192.387576,269.280582 164.486165,294.648759 C148.191576,269.229406 114.0944,253.7417 94.7309294,228.654994 C72.9553412,200.441406 57.4812824,167.290994 50.5639294,132.291406 Z" id="Stroke-1" stroke="#231F20" stroke-width="8"></path>
        <path d="M160.720088,115.547318 C148.016382,119.609024 133.361147,116.920553 122.927971,108.6112 C112.494794,100.301847 106.594147,86.6206706 107.709794,73.3301412 C108.098735,68.6918471 109.323559,64.0501412 111.861912,60.1487882 C115.920206,53.9154941 122.885324,50.1898471 129.8965,47.7060824 C141.331029,43.6546118 154.295735,42.3172 165.435147,47.1209647 C178.544853,52.7725529 187.348912,67.1360824 186.437971,81.3836118 C185.525324,95.6277294 174.960794,108.754494 161.238676,112.688259" id="Stroke-3" stroke="#231F20" stroke-width="8"></path>
    </g>
</svg>