<?xml version="1.0" encoding="UTF-8"?>
<svg width="300px" height="300px" viewBox="0 0 300 300" version="1.1" xmlns="http://www.w3.org/2000/svg" xmlns:xlink="http://www.w3.org/1999/xlink">
    <!-- Generator: Sketch 55.2 (78181) - https://sketchapp.com -->
    <title>index-email</title>
    <desc>Created with Sketch.</desc>
    <g id="index-email" stroke="none" stroke-width="1" fill="none" fill-rule="evenodd" stroke-linecap="round" stroke-linejoin="round">
        <path d="M6.2974497,90.0133905 C1.61283432,135.853982 9.68478698,182.931793 29.3704675,224.593982 C33.027213,232.329604 37.3274497,240.176763 44.3475089,245.063864 C50.8407633,249.583746 58.9298757,251.062917 66.7838994,252.004988 C119.992893,258.398716 173.416385,245.443095 225.443071,232.587 C237.925083,229.503391 250.649047,226.318538 261.524905,219.463213 C284.676858,204.87055 295.322775,175.743568 294.943544,148.378893 C294.56603,121.014219 284.94455,94.7288935 275.444905,69.0647515 C272.767982,61.8336272 269.790763,54.1906686 263.599521,49.595284 C257.183485,44.8317337 248.649935,44.3323846 240.660349,44.157355 C161.687686,42.4327988 82.4267396,54.8513195 7.76289349,80.6441598 C5.09626627,88.8070592 13.7070355,95.921497 21.1886923,100.135935 C64.131,124.331201 108.851059,145.369071 154.870112,163.02132 C161.785497,165.674219 168.93597,168.287651 176.342124,168.158953 C189.759343,167.92558 201.323308,158.841201 210.629047,149.171675 C236.308633,122.483095 253.398041,87.6539231 258.791355,51.0109645" id="Stroke-1" stroke="#231F20" stroke-width="8"></path>
        <path d="M102.000024,143.981189 C93.7307337,182.180538 60.4836923,211.141071 51.6549941,249.215154 C50.9308521,247.29326 50.2049941,245.373083 49.482568,243.451189" id="Stroke-3" stroke="#231F20" stroke-width="8"></path>
        <path d="M228.120852,126.136065 C243.05671,155.873935 261.506888,183.846065 282.963456,209.281982" id="Stroke-5" stroke="#231F20" stroke-width="8"></path>
    </g>
</svg>