<?xml version="1.0" encoding="utf-8"?>
<!-- Generator: Adobe Illustrator 23.0.2, SVG Export Plug-In . SVG Version: 6.00 Build 0)  -->
<svg version="1.1" id="Layer_1" xmlns="http://www.w3.org/2000/svg" xmlns:xlink="http://www.w3.org/1999/xlink" x="0px" y="0px"
	 viewBox="0 0 516 243" style="enable-background:new 0 0 516 243;" xml:space="preserve">
<style type="text/css">
	.st0{fill:#231F20;}
	.st1{fill:none;stroke:#231F20;}
	.st2{font-family:'Quicksand-Regular';}
	.st3{font-size:25.6298px;}
	.st4{fill:none;}
</style>
<title>index-social</title>
<desc>Created with Sketch.</desc>
<a href="https://www.instagram.com/roundandround_rotterdam/" target="_blank">
<rect x="407.6" y="73.6" class="st4" width="64.7" height="66.4"/>
</a>
<a href="https://www.facebook.com/roundandround.nl/" target="_blank">
<rect x="324.2" y="73.6" class="st4" width="64.7" height="66.4"/>
</a>
<g id="index-social">
	<g id="right" transform="translate(261.560000, 0.883629)">
			<g id="instagram" transform="translate(150.440000, 74.116371)">
				<path id="Path" class="st0" d="M0.6,9.5c1.1,11-0.8,22.1,0.8,33.1C3.1,53.4,9.4,61,19,62.9c9.3,1.8,20.2,1.4,29-2.9
					c3-1.5,5.6-3.8,6.7-7.3c1.2-3.8,1.4-8.2,1.6-12.2c0.6-9.2,0.5-18.9-1.1-28c-0.4-2.5-1-5.4-2.9-7.1c-2.3-2.1-5.4-3-8.2-3.7
					c-8.2-2-17.1-1.8-25.4-0.6C13.1,1.9,4.4,3,0.8,8.8c-1,1.5,1.3,3,2.2,1.5c1.7-2.8,5.5-3.8,8.3-4.7c4.5-1.4,9.1-1.9,13.7-2.2
					c4.8-0.3,9.5-0.2,14.3,0.4C42.9,4.2,46.8,5,50,7.1c2.4,1.6,2.7,5.3,3.1,8.1c0.8,5.1,0.9,10.4,0.9,15.6c0,5.2-0.1,10.4-0.7,15.5
					c-0.4,3.6-0.9,7-3.5,9.2c-5.5,4.6-13.7,5.2-20.3,5.3C22.6,61,15,60.4,9.7,55c-5.3-5.3-6.2-13.9-6.3-21.5c-0.2-8,0.7-16-0.1-24
					C3,7.7,0.4,7.7,0.6,9.5L0.6,9.5z"/>
				<path class="st0" d="M3.1,28.1c16.6-4,33.7-1,50.5-0.9c1.6,0,1.6-2.9,0-2.9c-17-0.1-34.3-3.1-51.2,1C0.8,25.7,1.5,28.5,3.1,28.1
					L3.1,28.1z"/>
				<path class="st0" d="M40.4,28.8c-1,7.1-4.9,12.9-11.4,13.8c-5,0.7-10.6-1.8-13.2-6.9c-1.4-2.7-1.4-5.9-0.8-8.8
					c1.2-5.6,4.9-8.7,9.7-9.8c4.1-1,9.2-0.8,12.8,1.8c3.3,2.5,3.3,8.1,3.3,12c0,1.9,2.6,1.9,2.6,0c0-4.8-0.2-10.2-3.6-13.7
					c-3.6-3.8-9.5-3.9-14-3.3c-5.2,0.7-10,3.5-12.2,9.1c-1.5,3.7-1.9,7.9-0.8,11.8c2.1,7.1,8.9,10.9,15.1,10.8
					c7.7-0.1,13.3-6.5,14.9-14.8c0.1-0.4,0.2-0.9,0.2-1.3C43.2,27.8,40.7,27,40.4,28.8L40.4,28.8z"/>
				<path class="st0" d="M38.2,8.8c0,2-0.4,4.3,0.2,6.2c0.7,2.1,2.5,2.5,4.2,2.6c2.1,0.2,5,0.5,5.7-2.4c0.6-2.2,0.2-5.5-0.5-7.6
					c-0.2-0.7-0.9-1.3-1.6-1c-2,0.8-3.9,0.8-6,0.4c-1.6-0.3-2.3,2.5-0.7,2.8c2.5,0.4,4.9,0.5,7.3-0.4c-0.5-0.3-1-0.7-1.6-1
					c0.5,1.6,0.6,3.4,0.6,5.1c0,0.7,0,1.2-0.5,1.4c-0.8,0.3-2,0-2.8-0.1c-0.9,0-1.7-0.1-1.9-1.1c-0.3-1.5,0-3.2,0-4.8
					C40.8,7,38.2,7,38.2,8.8L38.2,8.8z"/>
			</g>
			<g id="facebook" transform="translate(62.440000, 72.116371)">
				<path class="st0" d="M39.4,8.3c-11.5-1.7-12,12.5-10.1,20.6c0.3-0.4,0.7-0.9,1-1.3c-3.6-0.5-8-0.3-9.7,3.5
					c-0.2,0.6-0.1,1.5,0.6,1.5c2.8,0.4,5.4,1.3,6.7,3.9c1.1,2.2,1,4.9,1.1,7.3c0,5.3-0.1,10.9,3.5,15.1c0.4,0.4,1.1,0.4,1.5,0
					c5.9-7,2.8-17.7,1.4-25.8c-0.3,0.5-0.7,0.9-1,1.3c3.6-0.1,7.7-0.9,8.7-5c0.1-0.6-0.2-1.1-0.7-1.3c-1.8-0.5-3.7-0.9-5.5-1.4
					c-1.8-0.5-2.5-1.7-2.9-3.5c-0.6-2.7-0.4-5.5,1.4-7.6c1.6-1.9,4.3-2.7,6.7-3c0.8-0.1,1.3-0.8,0.9-1.6c-1.3-2.4-3-2.4-5.3-2.9
					c-1.3-0.3-1.9,1.8-0.5,2c1.7,0.4,3.1,0.2,4.1,1.9c0.3-0.5,0.6-1.1,0.9-1.6c-2.9,0.4-5.6,1.3-7.8,3.3c-2.5,2.2-2.9,5.5-2.5,8.6
					c0.3,2.2,1,4.3,2.8,5.5c2,1.4,4.9,1.5,7.2,2.1c-0.2-0.4-0.5-0.9-0.7-1.3c-0.8,3.1-4.1,3.4-6.7,3.4c-0.7,0-1.1,0.7-1,1.3
					c1.2,7.2,4.3,17.5-0.9,23.7c0.5,0,1,0,1.5,0c-3.9-4.4-2.7-11-3-16.4c-0.1-2.3-0.6-4.8-2-6.7c-1.7-2.4-4.5-3.3-7.2-3.7
					c0.2,0.5,0.4,1,0.6,1.6c1.4-3.1,5.1-2.9,8-2.5c0.7,0.1,1.1-0.8,1-1.3c-1.5-6.3-2-19.5,7.6-18C40.2,10.5,40.7,8.5,39.4,8.3
					L39.4,8.3z"/>
				<path class="st0" d="M3.2,4c0.4,6.8,0.9,13.7,1.6,20.5c0.5,5.4,1.4,10.8,1.5,16.2c0.2,7.5-1.1,17,4.8,22.7
					c3,2.9,7.4,3.4,11.3,3.5c4.7,0.1,9.4-0.3,14.1-0.5c7.5-0.3,17.1,0.4,23-5.3c2.8-2.8,3.6-6.8,3.9-10.6c0.4-5.1-0.3-10.2-1-15.2
					c-0.8-5.3-1.8-10.5-2.8-15.7c-0.7-3.9-1.1-8.1-2.7-11.8C54.3,2.3,48,1,42.7,0.7c-6.8-0.4-13.7,0.1-20.5,0.8
					C17.2,2,12.3,2.6,7.5,3.8C5.2,4.4,1.2,5.3,0.2,8c-0.5,1.3,1.5,1.8,2,0.6c0.5-1.3,3.4-2,4.6-2.3c3.1-0.9,6.2-1.4,9.4-1.9
					c7.3-1.1,14.7-1.6,22-1.6c5,0,12.8-0.2,15.9,4.6c2.1,3.1,2.4,7.6,3,11.2c0.9,5.1,2,10.2,2.8,15.3c0.9,5.3,1.5,10.7,1.3,16
					c-0.2,4.4-1.3,8.6-5.1,11.1c-3.5,2.3-8,2.6-12,2.9c-4.6,0.3-9.4,0.6-14,0.7c-4.6,0.1-9.3,0.6-13.8-0.6c-4.2-1.2-6.6-4.9-7.4-9.1
					C8.2,50.5,8.4,46,8.3,41.6C8.3,36.4,7.5,31.2,7,26.1C6.2,18.8,5.6,11.4,5.2,4C5.1,2.7,3.1,2.7,3.2,4L3.2,4z"/>
			</g>
		<path class="st1" d="M19.9,108.3c5.6-27.8,12.4-56.9,31.9-77.5C71.5,10,101.3,1.7,130,0.2C153.5-1,177.8,2,198.3,13.5
			c9.4,5.2,17.7,12.1,26,18.9c6.6,5.5,13.4,11.1,18.3,18.1c10.8,15.5,11.6,35.6,11.9,54.5c0.1,9.2,0.3,18.6-2.2,27.4
			c-7.4,26.2-35.5,41-62.3,46.2c-27.9,5.4-57.2,3.7-84.2-5c-17.4-5.6-33.9-14-51.1-20.2C39.1,147.9,15.9,141,0,147.6
			c0.1,0.1,0.9,1.8,1,1.9C13.6,141.2,17.1,122.1,19.9,108.3z"/>
		<text transform="matrix(1 0 0 1 66.2729 59.0404)" class="st2 st3">Follow Us!</text>
	</g>
	<g id="left" transform="translate(0.354752, 14.731677)">
		<path class="st0" d="M35.7,222.3c0-17.6,0.1-35.3,0.1-52.9c0-1.9,0.7-4.7-0.2-6.4c-1.1-2-5.8-3.2-7.9-3.9
			c-7.1-2.3-15.7-2.5-21.4-7.9c-6.1-5.7-7.6-16.2,2.4-18.2c5.1-1,10.4,0.3,15.6,0.3c3.3,0,7-0.2,9.5-2.8c3.7-3.8,2.1-9.3,0.8-13.8
			c-6.8-23.1-13.9-47.1-13.6-71.3c0.1-10.6,1.9-21.8,8-30.6c2.9-4.2,7.2-8.6,12-10.5C46.8,1.9,55.8,3.7,60.3,8
			c4,3.8,5.6,9.4,6.9,14.7c1.2,4.7,1.4,11.3,5.5,14.6c2.3,1.8,5.3,2.1,8,2.4c4.9,0.5,9.8,0.9,14.7,1.3c10.1,0.9,20.2,1.8,30.4,2.8
			c0.3,0,0.6-0.3,0.6-0.6c-0.3-8.5,0.8-16.9,3.6-24.9c1.4-4.1,3.3-8,5.5-11.8c1.3-2.2,2.6-4.4,5.4-5c2.4-0.5,5.5,0.7,7.6,1.8
			c17.4,9.3,10.3,35.7,8.6,51.1c-2.1,19.1-4.3,38.3-6.4,57.4c-0.6,5.7-1.5,12,3.2,16.3c3.5,3.2,8.6,4.1,13,5.2
			c3.2,0.8,6.5,1.6,9.3,3.4c4.9,3.2,2,7.9-0.8,11.7c-5.8,8-15.4,12.4-25.2,11.8c-0.4,0-0.6,0.3-0.6,0.6c-2.9,22.2-5.8,44.4-8.7,66.6
			c-0.1,0.8,1.2,0.8,1.2,0c2.1-16.3,4.3-32.6,6.4-49c0.5-3.9,1-7.8,1.5-11.8c0.2-1.6-0.1-4.2,1.6-5.2c0.7-0.4,3.3-0.1,4.2-0.2
			c5.3-0.7,10.3-2.8,14.5-6c3.8-2.9,7-6.8,9-11.1c1.7-3.9,1.9-5.2-1.5-7.9c-7.1-5.6-20.6-3.1-25.2-11.9c-2-3.9-1.1-8.6-0.6-12.7
			c0.4-4,0.9-7.9,1.3-11.9c0.9-8.6,1.9-17.2,2.9-25.8c1.7-15.2,4.4-30.6,4.8-45.9c0.3-10.5-2.6-22.2-13.2-26.8
			c-2.8-1.2-7.4-2.3-10.1-0.5c-1.8,1.1-3.3,5-4.4,6.9c-1.6,2.9-3,6-4.1,9.1c-2.1,5.7-3.4,11.7-3.8,17.8c-0.1,1.5,0.2,3.5-0.2,4.9
			c-0.7,2.7-0.2,2.1-3.2,2.3c-4.4,0.3-9.3-0.8-13.7-1.2c-7.8-0.7-15.7-1.4-23.5-2.1c-4.5-0.4-10-0.1-12.9-4.3
			c-1.8-2.8-2.2-6.7-2.9-9.9c-1.5-6.7-3.4-14.3-9.3-18.6c-3.1-2.2-6.8-3.2-10.5-3.5c-5.6-0.4-9,0.5-13.4,3.7
			C21.4,16.6,19,35.8,19.9,52.3c1.1,21.4,6.9,42.5,12.9,63c1.3,4.4,3.9,10.5,0,14.4c-2.1,2.1-5.2,2.4-8.1,2.4
			c-5.1,0-10.2-1.1-15.2-0.5c-8.6,1.1-12.1,9-7.6,16.3c2.8,4.6,7.2,7.4,12.2,9c3.6,1.1,7.3,1.8,10.9,2.8c2,0.6,3.9,1.2,5.8,2
			c3,1.4,3.4,2.5,3.7,5.8c0.9,8.9,0,18.5-0.1,27.5c0,9.2-0.1,18.3-0.1,27.5C34.4,223.1,35.7,223.1,35.7,222.3L35.7,222.3z"/>
		<circle id="Oval" class="st0" cx="62.8" cy="69.9" r="5"/>
		<path class="st0" d="M63.2,110.9c2.1,8.2,9.3,18.2,18.3,10.8c4.9-4.1,5.4-10.9,9.8-15.3c2.1-2.1,3.8-4.4,0.6-6.7
			c-0.2-0.1-0.5-0.1-0.6,0c-3.7,2.5-3.8,9.8,2.1,9c4.4-0.6,4.2-6.4,0.2-7.5c-0.5-0.1-0.8,0.3-0.8,0.8c1.2,8-1.6,18.6,7.9,22.4
			c3.3,1.3,8.7,1.2,11.6-1.1c2.3-1.9,2.3-5,3.6-7.5c0.4-0.7-0.7-1.3-1.1-0.6c-0.8,1.4-1,3-1.6,4.5c-1.6,4.2-6.8,5.1-10.8,4.1
			c-5.2-1.3-7.2-5.6-7.7-10.4c-0.3-2.8,0.4-6.5-0.4-9.2c-0.7-2.1,1.3-3-2.7,0.5c-1,0.8-1.9,1.6-2.6,2.6c-1.9,2.7-2.7,6-4.4,8.8
			c-2.9,4.8-8.2,9.3-13.8,5.5c-3.6-2.4-5.2-6.9-6.3-11C64.2,109.8,63,110.1,63.2,110.9L63.2,110.9z"/>
		<circle class="st0" cx="124.3" cy="76.7" r="5"/>
		<path class="st0" d="M183.2,119c-5.3,11.9-10.6,23.9-15.9,35.8c-0.1,0.3-0.1,0.7,0.2,0.9c7.6,3.5,15.3,7,22.9,10.4
			c3.3,1.5,8.4,4.8,11.3,0.9c1.5-2.1,1.8-5.8,2.4-8.2c1.1-4.1,2.1-8.2,3.1-12.3c2.2-8.5,4.4-17.1,6.5-25.6c0.1-0.4-0.2-0.8-0.6-0.8
			c-6.6-0.3-13.2-0.6-19.8-0.8c-1.6-0.1-3.4,0.2-4.9-0.2c-2.5-0.7-3.4-2.5-4.4-4.6c-1.2-2.6-1.8-5.7-2.5-8.4
			c-2.8-12.1-2.6-24.6-1.3-36.8c0.7-6.5,1.8-13,3.1-19.3c1.1-5.5,2.4-11.2,5.7-15.9c4-5.5,11.9-9,17.9-4.5c5,3.8,5.2,11.1,5.4,16.8
			c0,0.8,1.3,0.8,1.2,0c-0.2-7.8-1.5-18.6-11-20.1c-10-1.6-16.5,8-18.9,16.3c-3.6,12.4-5.3,26.2-5.6,39.1
			c-0.4,13.1,1.5,26.1,6.7,38.2c0.1,0.2,0.3,0.3,0.5,0.3c5.9,0.2,11.9,0.5,17.8,0.8c2.1,0.1,7.2-0.6,8.4,0.9c1.1,1.5-1,6.4-1.5,8.2
			c-1.5,5.7-2.9,11.4-4.4,17.1c-0.7,2.8-1.4,5.7-2.2,8.5c-0.6,2.3-0.8,6.6-2.2,8.5c-1.2,1.9-3.8,3.2-5.8,3c-1.4-0.2-3.2-1.4-4.6-2.1
			c-2.6-1.2-5.3-2.4-7.9-3.6c-2.6-1.2-5.3-2.4-7.9-3.6c-2.7-1.2-6.1-1.8-5.6-5c0.4-2.5,2.5-5.7,3.6-8.1c1.2-2.7,2.4-5.4,3.6-8.1
			c2.5-5.7,5-11.3,7.5-17C184.6,118.9,183.5,118.3,183.2,119L183.2,119z"/>
		<path class="st0" d="M192.2,114.5c0.1-17.2-0.4-34.5,0.5-51.7c0.4-8.2,1.2-17.5,5.7-24.6c2.7-4.3,7.5-7.9,12.8-7.4
			c6.3,0.5,10.9,8,6.2,13.3c-0.5,0.6,0.3,1.5,0.9,0.9c4.3-4.8,2-12.6-4-14.8c-7.9-2.9-15.3,3.5-18.4,10.2
			c-4.6,9.9-4.5,21.9-4.6,32.6c-0.1,13.8-0.2,27.7-0.2,41.6C191,115.4,192.2,115.4,192.2,114.5L192.2,114.5z"/>
		<path class="st0" d="M197.1,117.6c4.6-11.4,16.1-19.4,24.3-28.1c8.5-9,16.4-18.6,23.7-28.6c3.8-5.3,13.1-15.1,9.3-22.5
			c-4.8-9.4-16.3,1.6-22,2.9c-0.8,0.2-0.4,1.4,0.3,1.2c4.1-0.9,7-3.7,10.8-5.3c5.2-2.3,11.4,0.1,10.2,6.5c-0.4,2.1-1.3,4.1-2.4,5.9
			c-5.3,9.3-12.6,18-19.5,26.2c-6.6,7.9-13.6,15.4-20.9,22.5c-5.9,5.7-12,11.2-15.1,19C195.6,118,196.8,118.3,197.1,117.6
			L197.1,117.6z"/>
		<path class="st0" d="M211.9,124.4c11.2-22.7,34.1-36.1,46.8-57.6c4.6-7.8,8.5-20.1,0.5-27.1c-5-4.3-13.1-5.2-17.3,0.5
			c-0.5,0.7,0.6,1.3,1.1,0.6c3.3-4.5,9.2-4.1,13.6-1.5c5.6,3.4,6.8,10.2,5.5,16.2c-2.2,10.2-9.8,19-16.7,26.5
			c-12.2,13.4-26.4,25.2-34.6,41.7C210.5,124.5,211.5,125.1,211.9,124.4L211.9,124.4z"/>
		<path class="st0" d="M200.5,122.4c3.8-15.4,4.9-31.3,6.8-47c1-8.2,2.3-16.5,4.4-24.5c1-3.7,2.1-7.4,3.5-11
			c0.8-2.1,1.6-5.8,3.3-7.4c0.3-1.8,1.1-2,2.3-0.7c1,1.6,1.4,3.4,1.4,5.3c0,0.8,1.3,0.8,1.2,0c-0.2-3.3-1.3-5.9-3.6-8.3
			c-0.3-0.3-0.8-0.2-1,0.1c-15.5,28.7-12,62.4-19.6,93.3C199.1,122.9,200.3,123.2,200.5,122.4L200.5,122.4z"/>
		<path class="st0" d="M200.1,118.4c-2.2-17.9,0.6-36.2,8.2-52.6c3.6-7.9,8.3-15.4,13.9-22.1c1.2-1.4,7.4-9.4,8.9-8.8
			c1.3,0.6,1.6,5.5,1.8,6.7c0.4,2.8,0.4,5.6,0.2,8.4c-0.1,0.8,1.2,0.8,1.2,0c0.4-5.9-0.4-11.4-2.3-17c-0.2-0.5-0.7-0.6-1-0.3
			c-23.9,21.3-36.1,53.8-32.2,85.5C199,119.2,200.2,119.2,200.1,118.4L200.1,118.4z"/>
		<path class="st0" d="M204.7,111.5c-3.5-11.8,6.5-21.7,13.3-30c6.3-7.7,12-16,16.8-24.7c2.3-4.2,5.1-8.6,6.6-13.1
			c0.6-1.8,0.9-3.9-0.4-5.5c-3.2-4.1-10.5-0.5-13.6,1.7c-0.6,0.5,0,1.5,0.6,1.1c2.3-1.7,7.2-4.6,10.2-3.1c5.3,2.6-1.5,13-3.2,16
			c-4,7.5-8.6,14.6-13.7,21.3c-7.7,10.3-22.2,22.2-17.8,36.6C203.7,112.6,204.9,112.3,204.7,111.5L204.7,111.5z"/>
		<path class="st0" d="M172.6,154.6c-0.2,0.5-0.4,0.9-0.4,1.4c0.1,0.9,0.9,1.6,1.6,2.2c5.8,4.1,12.4,7,19.3,8.3
			c1.2,0.2,2.4,0.4,3.5,0.2c1.3-0.2,2.6-1,3.6-1.9c4.3-3.8,5.7-9.9,6.1-15.6c0.4-5.7-0.1-11.5,1.3-17.1c1-3.6,2.6-7.8,0.4-10.8
			c-5.1-6.9-21.2-4.4-25.6,1.8C176.9,131,176.5,145.4,172.6,154.6z"/>
	</g>
</g>
</svg>
