<?xml version="1.0" encoding="UTF-8"?>
<svg width="300px" height="300px" viewBox="0 0 300 300" version="1.1" xmlns="http://www.w3.org/2000/svg" xmlns:xlink="http://www.w3.org/1999/xlink">
    <!-- Generator: Sketch 55.2 (78181) - https://sketchapp.com -->
    <title>sidebar-craft</title>
    <desc>Created with Sketch.</desc>
    <g id="sidebar-craft" stroke="none" stroke-width="1" fill="none" fill-rule="evenodd" stroke-linecap="round" stroke-linejoin="round">
        <path d="M59.8933931,267.625173 C63.4639133,273.788931 67.5004451,279.902399 73.2602139,284.094827 C80.8505029,289.619913 90.5529306,291.19396 99.8882486,292.184653 C127.609231,295.126561 155.722468,294.331994 183.233913,289.827775 C195.722353,287.781012 208.484029,284.803902 218.721197,277.36448 C231.717555,267.918526 238.952468,252.558584 244.366919,237.431647 C252.257266,215.384942 257.428653,192.365983 259.725185,169.063728 C260.66559,159.530607 261.00085,149.358815 256.36085,140.977312 C248.504029,126.77737 230.064723,123.193439 213.967208,121.124884 C217.499173,110.46026 217.111948,98.0573121 210.849289,88.7303757 C204.584954,79.4051156 191.76796,74.2907225 181.435243,78.6993931 C167.399578,84.688815 164.365474,102.883382 163.324491,118.107543 C139.505936,116.052399 115.378942,114.008988 91.8118324,118.027081 C63.8092312,122.799509 34.2627572,134.88396 33.1161676,165.030549 C31.7700983,200.39211 42.2520058,237.178526 59.8933931,267.625173 Z" id="Stroke-1" stroke="#231F20" stroke-width="8"></path>
        <path d="M175.284728,86.3408092 C177.183977,93.8120809 183.562301,99.9557225 191.102301,101.571676 C198.638948,103.189306 206.976867,100.203815 211.774439,94.1674566" id="Stroke-3" stroke="#231F20" stroke-width="8"></path>
        <path d="M194.504017,98.8590867 C192.224249,77.9606474 200.414653,56.180474 215.901994,41.9654451" id="Stroke-5" stroke="#231F20" stroke-width="8"></path>
        <path d="M219.840127,36.7050462 C213.292497,38.2656821 206.156486,35.0036012 202.148451,29.5958555 C198.140416,24.1881098 197.000532,17.0219249 197.986197,10.363659 C198.222555,8.76279191 198.651688,7.05128902 199.91059,6.03377457 C201.020301,5.14198266 202.542382,4.9827341 203.965561,5.00117341 C218.700243,5.18389017 229.856023,23.4287457 223.30504,36.6279364 C225.980416,29.9244104 232.762728,25.7219249 239.620474,23.4656243 C245.908277,21.3953931 253.171688,20.6745838 258.857699,24.0623873 C264.545387,27.4485145 267.207353,36.1116358 262.688046,40.9460867 C261.368798,42.3575318 259.625445,43.2962601 257.848566,44.0522717 C247.319723,48.5296705 234.44741,46.9321561 225.331688,40.0190925 C232.497873,44.9289769 240.071399,50.345104 243.100474,58.486896 C246.129549,66.6303642 241.843249,77.9554509 233.188509,78.6997283 C224.015792,79.4859133 218.120243,68.636896 217.910705,59.4356821 C217.702844,50.2311156 220.515676,40.7214624 217.575445,31.9963179 C219.674173,33.7296127 216.874751,36.8575896 214.388798,37.9656243 C209.04978,40.3476474 203.57163,42.4128497 197.989549,44.1461445 C191.943133,46.0252775 185.185965,47.466896 179.461399,44.7663757 C173.735156,42.0641792 170.702728,33.4597283 175.414809,29.2320983 C189.45215,24.5468382 205.925156,28.1324451 216.744,38.2288035" id="Stroke-7" stroke="#231F20" stroke-width="8"></path>
    </g>
</svg>