<?xml version="1.0" encoding="UTF-8"?>
<svg width="300px" height="300px" viewBox="0 0 300 300" version="1.1" xmlns="http://www.w3.org/2000/svg" xmlns:xlink="http://www.w3.org/1999/xlink">
    <!-- Generator: Sketch 55.2 (78181) - https://sketchapp.com -->
    <title>sidebar-hours</title>
    <desc>Created with Sketch.</desc>
    <g id="sidebar-hours" stroke="none" stroke-width="1" fill="none" fill-rule="evenodd" stroke-linecap="round" stroke-linejoin="round">
        <path d="M39.5292189,37.2031302 C60.839929,19.5525976 89.7884497,14.3652012 117.446556,12.1224201 C143.205077,10.0323609 169.864485,10.0632485 193.961941,19.3398166 C236.864781,35.8560888 263.824485,78.4792249 279.918627,121.282538 C297.438746,167.874728 303.067148,226.857982 267.115728,261.486385 C244.814899,282.966976 211.669101,289.321237 180.604781,288.784136 C137.260935,288.034254 93.1637751,275.071769 60.2891006,247.012124 C7.17791716,201.677746 -21.9044497,88.0904083 39.5292189,37.2031302 Z" id="Stroke-1" stroke="#231F20" stroke-width="8"></path>
        <path d="M130.618391,51.0616982 C129.084308,87.4918757 129.890817,124.02158 133.032769,160.350515 C133.405136,164.662763 134.022888,169.41087 137.286675,172.281698 C140.131763,174.785308 144.227799,175.162822 148.021822,175.375604 C180.956556,177.216846 214.093775,175.478562 246.649278,170.203651" id="Stroke-3" stroke="#231F20" stroke-width="8"></path>
    </g>
</svg>