<?xml version="1.0" encoding="UTF-8"?>
<svg width="300px" height="300px" viewBox="0 0 300 300" version="1.1" xmlns="http://www.w3.org/2000/svg" xmlns:xlink="http://www.w3.org/1999/xlink">
    <!-- Generator: Sketch 55.2 (78181) - https://sketchapp.com -->
    <title>sidebar-story</title>
    <desc>Created with Sketch.</desc>
    <g id="sidebar-story" stroke="none" stroke-width="1" fill="none" fill-rule="evenodd" stroke-linecap="round" stroke-linejoin="round">
        <path d="M94.7746127,274.255393 C95.663052,252.465162 111.478948,233.191058 131.071549,223.612676 C150.66415,214.034295 173.399815,212.877647 195.077734,215.264699 C198.621434,195.734121 215.878948,180.975971 234.680335,174.616087 C253.481723,168.256202 273.815249,168.75574 293.654266,169.329035 C260.567445,125.074699 226.865422,81.2796705 192.561607,37.9623873 C186.692879,30.5514624 180.371549,22.830422 171.525711,19.4962601 C163.799642,16.5862023 155.09126,17.4696127 147.234439,20.0008266 C120.043168,28.7611734 101.349064,58.5205376 105.263225,86.8198439 C103.657329,75.2081098 -3.15319075,98.9076474 5.49819653,137.997301 C9.64368786,156.724931 42.0817803,185.372908 53.2157688,202.293486 C68.4466358,225.449902 82.3364624,249.488052 94.7746127,274.255393 Z" id="Stroke-1" stroke="#231F20" stroke-width="8"></path>
        <path d="M101.722879,84.4175376 C134.898543,127.247017 166.022416,171.66563 194.955364,217.467191" id="Stroke-3" stroke="#231F20" stroke-width="8"></path>
        <path d="M96.1775087,278.015503 C99.1847919,278.169723 102.021092,280.176254 103.167682,282.962266 C112.935486,265.889145 130.327104,254.651225 147.888029,245.783595 C164.071035,237.613306 180.97485,230.871225 198.341324,225.661283 C195.560341,222.959087 193.697971,219.32822 193.126353,215.49452" id="Stroke-5" stroke="#231F20" stroke-width="8"></path>
        <path d="M197.754116,225.726156 C220.989318,203.379393 252.116543,189.409104 284.256254,186.901358 C280.853364,181.138237 277.450474,175.378468 274.04926,169.617023" id="Stroke-7" stroke="#231F20" stroke-width="8"></path>
    </g>
</svg>