<?xml version="1.0" encoding="UTF-8"?>
<svg width="516px" height="243px" viewBox="0 0 516 243" version="1.1" xmlns="http://www.w3.org/2000/svg" xmlns:xlink="http://www.w3.org/1999/xlink">
    <!-- Generator: Sketch 55.2 (78181) - https://sketchapp.com -->
    <title>index-social</title>
    <desc>Created with Sketch.</desc>
    <g id="index-social" stroke="none" stroke-width="1" fill="none" fill-rule="evenodd">
        <g id="right" transform="translate(261.560000, 0.883629)">
            <a href="https://www.instagram.com/roundandround_rotterdam/" alt="Instagram">
                <g id="instagram" transform="translate(150.440000, 74.116371)" fill="#231F20" fill-rule="nonzero">
                    <path d="M0.63,9.53 C1.69,20.54 -0.17,31.63 1.46,42.61 C3.06,53.4 9.44,61 18.95,62.89 C28.3,64.74 39.19,64.27 47.99,59.98 C50.97,58.53 53.62,56.22 54.69,52.66 C55.84,48.82 56.06,44.51 56.3,40.5 C56.86,31.27 56.8,21.62 55.21,12.51 C54.77,10.01 54.17,7.07 52.32,5.42 C50,3.34 46.96,2.41 44.12,1.72 C35.88,-0.28 27.05,-0.08 18.72,1.1 C13.06,1.9 4.45,3.01 0.81,8.81 C-0.15,10.35 2.08,11.8 3.03,10.28 C4.77,7.5 8.57,6.44 11.29,5.61 C15.77,4.25 20.42,3.67 25.03,3.36 C29.78,3.05 34.56,3.16 39.29,3.77 C42.89,4.23 46.82,4.99 49.99,7.1 C52.36,8.68 52.65,12.44 53.06,15.25 C53.81,20.37 53.96,25.63 53.99,30.82 C54.02,35.99 53.86,41.21 53.25,46.34 C52.83,49.91 52.39,53.31 49.7,55.57 C44.23,60.18 35.98,60.73 29.44,60.85 C22.6,60.96 15.01,60.39 9.66,55 C4.39,49.69 3.49,41.07 3.31,33.54 C3.11,25.55 3.98,17.52 3.21,9.54 C3.02,7.69 0.45,7.67 0.63,9.53 L0.63,9.53 Z" id="Path"></path>
                    <path d="M3.13,28.13 C19.7,24.09 36.85,27.13 53.61,27.19 C55.26,27.2 55.26,24.28 53.61,24.28 C36.6,24.23 19.27,21.22 2.45,25.33 C0.83,25.72 1.52,28.53 3.13,28.13 L3.13,28.13 Z" id="Path"></path>
                    <path d="M40.41,28.81 C39.36,35.86 35.52,41.75 28.97,42.65 C23.92,43.34 18.38,40.85 15.78,35.73 C14.4,33.04 14.34,29.84 14.98,26.89 C16.2,21.31 19.89,18.21 24.69,17.06 C28.75,16.09 33.87,16.22 37.45,18.83 C40.8,21.28 40.76,26.91 40.74,30.88 C40.73,32.75 43.3,32.75 43.31,30.88 C43.33,26.05 43.06,20.72 39.76,17.22 C36.17,13.41 30.25,13.36 25.71,13.96 C20.52,14.64 15.67,17.49 13.46,23.09 C11.99,26.81 11.53,30.98 12.65,34.9 C14.7,42.01 21.55,45.77 27.78,45.66 C35.46,45.52 41.05,39.12 42.68,30.88 C42.76,30.45 42.83,30.02 42.88,29.6 C43.16,27.75 40.69,26.96 40.41,28.81 L40.41,28.81 Z" id="Path"></path>
                    <path d="M38.22,8.84 C38.21,10.81 37.82,13.11 38.42,15.01 C39.07,17.06 40.92,17.51 42.63,17.63 C44.76,17.78 47.59,18.13 48.32,15.21 C48.89,12.96 48.52,9.72 47.79,7.57 C47.55,6.87 46.92,6.28 46.21,6.55 C44.24,7.31 42.28,7.36 40.23,6.99 C38.61,6.71 37.91,9.52 39.55,9.8 C42.05,10.24 44.47,10.28 46.89,9.36 C46.36,9.02 45.84,8.68 45.31,8.34 C45.85,9.94 45.96,11.72 45.94,13.41 C45.94,14.1 45.98,14.6 45.47,14.78 C44.69,15.05 43.45,14.74 42.63,14.71 C41.76,14.68 40.93,14.65 40.74,13.59 C40.48,12.11 40.78,10.34 40.79,8.84 C40.8,6.96 38.23,6.96 38.22,8.84 L38.22,8.84 Z" id="Path"></path>
                </g>
            </a>
            <a href="https://www.facebook.com/roundandround.nl/" alt="Facebook">
                <g id="facebook" transform="translate(62.440000, 72.116371)" fill="#231F20" fill-rule="nonzero">
                    <path d="M39.41,8.3 C27.92,6.59 27.38,20.79 29.31,28.93 C29.63,28.49 29.97,28.04 30.3,27.59 C26.73,27.12 22.3,27.31 20.57,31.14 C20.32,31.69 20.46,32.59 21.18,32.69 C23.94,33.08 26.54,33.96 27.92,36.61 C29.04,38.78 28.96,41.53 28.99,43.92 C29.03,49.21 28.85,54.78 32.51,58.99 C32.86,59.41 33.61,59.41 33.97,58.99 C39.83,51.97 36.76,41.34 35.42,33.2 C35.08,33.65 34.75,34.09 34.42,34.54 C38.01,34.48 42.08,33.6 43.07,29.54 C43.21,28.98 42.9,28.4 42.35,28.24 C40.53,27.7 38.67,27.39 36.85,26.84 C35.1,26.31 34.35,25.11 33.95,23.36 C33.32,20.7 33.52,17.9 35.36,15.8 C37.01,13.9 39.69,13.11 42.07,12.8 C42.84,12.71 43.38,11.98 42.96,11.22 C41.69,8.85 39.98,8.86 37.63,8.31 C36.32,8.02 35.78,10.06 37.08,10.35 C38.79,10.75 40.23,10.54 41.17,12.29 C41.46,11.75 41.77,11.22 42.06,10.69 C39.17,11.07 36.47,11.96 34.23,13.97 C31.77,16.17 31.35,19.47 31.74,22.6 C32.01,24.82 32.7,26.88 34.57,28.14 C36.6,29.5 39.51,29.61 41.79,30.28 C41.54,29.86 41.3,29.42 41.07,28.99 C40.32,32.05 37.01,32.39 34.4,32.44 C33.68,32.45 33.29,33.1 33.41,33.78 C34.61,40.98 37.72,51.23 32.5,57.51 C32.99,57.51 33.47,57.51 33.96,57.51 C30.09,53.06 31.29,46.54 30.95,41.07 C30.82,38.73 30.35,36.32 28.98,34.38 C27.28,32 24.47,31.04 21.73,30.67 C21.93,31.18 22.13,31.7 22.34,32.22 C23.74,29.09 27.46,29.35 30.29,29.73 C30.98,29.81 31.42,28.98 31.28,28.39 C29.79,22.11 29.3,8.93 38.85,10.36 C40.16,10.54 40.72,8.51 39.41,8.3 L39.41,8.3 Z" id="Path"></path>
                    <path d="M3.16,4.05 C3.52,10.88 4.09,17.7 4.76,24.5 C5.28,29.87 6.17,35.27 6.28,40.66 C6.44,48.14 5.16,57.7 11.04,63.36 C14.04,66.23 18.41,66.76 22.33,66.87 C27.01,67 31.72,66.59 36.39,66.38 C43.87,66.04 53.51,66.77 59.39,61.05 C62.23,58.3 63.03,54.24 63.3,50.41 C63.65,45.35 63,40.23 62.27,35.23 C61.51,29.97 60.45,24.77 59.46,19.57 C58.72,15.66 58.31,11.45 56.72,7.79 C54.33,2.28 47.99,1.02 42.65,0.7 C35.84,0.29 28.93,0.79 22.15,1.47 C17.25,1.96 12.32,2.63 7.55,3.84 C5.16,4.45 1.24,5.32 0.24,8 C-0.23,9.28 1.76,9.82 2.23,8.56 C2.73,7.23 5.65,6.57 6.82,6.23 C9.88,5.3 13.05,4.78 16.2,4.31 C23.47,3.24 30.87,2.73 38.22,2.71 C43.22,2.7 50.99,2.56 54.14,7.29 C56.2,10.38 56.51,14.91 57.16,18.48 C58.09,23.59 59.14,28.69 59.98,33.82 C60.83,39.12 61.48,44.49 61.26,49.86 C61.08,54.26 59.93,58.5 56.15,61 C52.69,63.27 48.16,63.64 44.17,63.92 C39.53,64.23 34.8,64.54 30.15,64.61 C25.57,64.66 20.83,65.25 16.34,63.97 C12.11,62.77 9.7,59.08 8.96,54.84 C8.19,50.51 8.39,45.98 8.34,41.59 C8.29,36.4 7.49,31.25 6.96,26.1 C6.21,18.76 5.59,11.41 5.2,4.04 C5.14,2.69 3.08,2.69 3.16,4.05 L3.16,4.05 Z" id="Path"></path>
                </g>
            </a>
            <path d="M19.85,108.316371 C25.47,80.5663709 32.21,51.3763709 51.7,30.8363709 C71.47,10.0063709 101.33,1.71637089 130.01,0.246370894 C153.48,-0.953629106 177.79,2.03637089 198.3,13.5063709 C207.66,18.7463709 216,25.6163709 224.27,32.4463709 C230.91,37.9263709 237.64,43.5063709 242.59,50.5563709 C253.43,66.0263709 254.19,86.1763709 254.5,105.066371 C254.65,114.276371 254.77,123.646371 252.26,132.506371 C244.84,158.716371 216.71,173.516371 189.98,178.736371 C162.08,184.186371 132.8,182.446371 105.74,173.736371 C88.29,168.116371 71.87,159.706371 54.62,153.506371 C39.08,147.916371 15.95,140.986371 0,147.626371 C0.09,147.766371 0.92,149.376371 1,149.546371 C13.57,141.216371 17.07,122.086371 19.85,108.316371 Z" id="Path" stroke="#231F20"></path>
            <text id="Follow-Us!" fill="#000000" font-family="Quicksand-Regular, Quicksand" font-size="25.6298" font-weight="normal">
                <tspan x="66.2729" y="59.0403709">Follow Us!</tspan>
            </text>
        </g>
        <g id="left" transform="translate(0.354752, 14.731677)" fill="#231F20" fill-rule="nonzero">
            <path d="M35.6852482,222.308323 C35.7352482,204.658323 35.7852482,187.008323 35.8352482,169.358323 C35.8452482,167.478323 36.5052482,164.638323 35.6052482,162.988323 C34.5452482,161.028323 29.8252482,159.738323 27.7052482,159.038323 C20.5752482,156.698323 12.0152482,156.498323 6.27524817,151.138323 C0.18524817,145.448323 -1.32475183,134.938323 8.68524817,132.888323 C13.7752482,131.848323 19.1052482,133.148323 24.2352482,133.218323 C27.5252482,133.258323 31.2652482,132.968323 33.7052482,130.468323 C37.4152482,126.678323 35.8152482,121.138323 34.5152482,116.688323 C27.7552482,93.6183227 20.6452482,69.6083227 20.9452482,45.3483227 C21.0752482,34.7683227 22.8252482,23.5983227 28.9752482,14.7283227 C31.8552482,10.5683227 36.1852482,6.13832274 40.9752482,4.21832274 C46.7952482,1.86832274 55.8152482,3.70832274 60.3352482,7.98832274 C64.3552482,11.7983227 65.9652482,17.4283227 67.2552482,22.6383227 C68.4252482,27.3783227 68.6352482,33.9383227 72.7552482,37.2383227 C75.0252482,39.0483227 78.0352482,39.3183227 80.8052482,39.5983227 C85.6952482,40.0983227 90.5952482,40.4883227 95.4952482,40.9283227 C105.615248,41.8483227 115.735248,42.7583227 125.855248,43.6783227 C126.185248,43.7083227 126.495248,43.3683227 126.475248,43.0583227 C126.145248,34.5683227 127.295248,26.1583227 130.115248,18.1283227 C131.555248,14.0383227 133.395248,10.0983227 135.625248,6.36832274 C136.945248,4.15832274 138.195248,1.93832274 140.995248,1.39832274 C143.415248,0.928322744 146.485248,2.06832274 148.605248,3.20832274 C165.965248,12.5083227 158.905248,38.8683227 157.185248,54.3383227 C155.055248,73.4883227 152.905248,92.6283227 150.795248,111.778323 C150.165248,117.468323 149.295248,123.818323 153.955248,128.098323 C157.455248,131.318323 162.525248,132.218323 166.975248,133.328323 C170.135248,134.118323 173.505248,134.898323 176.245248,136.728323 C181.105248,139.978323 178.215248,144.638323 175.435248,148.468323 C169.665248,156.438323 160.045248,160.898323 150.275248,160.258323 C149.905248,160.238323 149.695248,160.568323 149.655248,160.878323 C146.755248,183.078323 143.855248,205.278323 140.955248,227.478323 C140.855248,228.278323 142.105248,228.268323 142.205248,227.478323 C144.335248,211.158323 146.475248,194.828323 148.605248,178.508323 C149.115248,174.588323 149.625248,170.678323 150.145248,166.758323 C150.355248,165.178323 150.055248,162.558323 151.705248,161.598323 C152.405248,161.188323 155.035248,161.518323 155.925248,161.408323 C161.185248,160.758323 166.205248,158.598323 170.405248,155.378323 C174.215248,152.448323 177.375248,148.628323 179.355248,144.238323 C181.085248,140.388323 181.275248,139.028323 177.875248,136.348323 C170.735248,130.738323 157.285248,133.298323 152.705248,124.458323 C150.705248,120.598323 151.615248,115.888323 152.065248,111.768323 C152.495248,107.808323 152.945248,103.848323 153.385248,99.8883227 C154.335248,91.3083227 155.295248,82.7183227 156.245248,74.1383227 C157.935248,58.9483227 160.635248,43.4983227 161.065248,28.2083227 C161.355248,17.7183227 158.425248,5.98832274 147.855248,1.43832274 C145.085248,0.248322744 140.465248,-0.831677256 137.735248,0.918322744 C135.945248,2.06832274 134.385248,5.94832274 133.335248,7.86832274 C131.725248,10.7983227 130.355248,13.8683227 129.205248,17.0083227 C127.115248,22.7283227 125.815248,28.7383227 125.355248,34.8183227 C125.235248,36.3283227 125.515248,38.2983227 125.165248,39.7483227 C124.505248,42.4783227 124.925248,41.8683227 121.955248,42.0583227 C117.565248,42.3383227 112.635248,41.2183227 108.245248,40.8183227 C100.415248,40.1083227 92.5752482,39.3983227 84.7452482,38.6883227 C80.2752482,38.2883227 74.6952482,38.6083227 71.8852482,34.3483227 C70.0352482,31.5383227 69.7352482,27.6283227 68.9952482,24.4183227 C67.4452482,17.7083227 65.5652482,10.0983227 59.6952482,5.79832274 C56.6252482,3.55832274 52.9052482,2.58832274 49.1552482,2.30832274 C43.5852482,1.88832274 40.1552482,2.75832274 35.7252482,6.03832274 C21.4352482,16.5983227 19.0452482,35.7583227 19.8652482,52.2683227 C20.9352482,73.6983227 26.7852482,94.7383227 32.8152482,115.218323 C34.1052482,119.618323 36.6952482,125.718323 32.8552482,129.578323 C30.7452482,131.698323 27.6152482,131.968323 24.7952482,131.968323 C19.7252482,131.978323 14.6352482,130.828323 9.56524817,131.498323 C0.93524817,132.638323 -2.51475183,140.458323 1.96524817,147.818323 C4.76524817,152.418323 9.17524817,155.198323 14.2152482,156.778323 C17.7952482,157.898323 21.5152482,158.538323 25.1252482,159.548323 C27.0952482,160.098323 29.0552482,160.708323 30.9152482,161.578323 C33.9252482,162.998323 34.3052482,164.118323 34.6252482,167.378323 C35.5052482,176.318323 34.5752482,185.838323 34.5452482,194.838323 C34.5152482,203.988323 34.4952482,213.138323 34.4652482,222.298323 C34.4252482,223.108323 35.6752482,223.108323 35.6852482,222.308323 L35.6852482,222.308323 Z" id="Path"></path>
            <circle id="Oval" cx="62.8352482" cy="69.9083227" r="4.97"></circle>
            <path d="M63.2052482,110.928323 C65.3352482,119.078323 72.5552482,129.138323 81.4652482,121.688323 C86.4052482,117.548323 86.8952482,110.818323 91.2352482,106.398323 C93.3152482,104.278323 95.0152482,102.008323 91.8752482,99.6883227 C91.7052482,99.5683227 91.4152482,99.5783227 91.2452482,99.6883227 C87.5152482,102.208323 87.4452482,109.478323 93.2952482,108.738323 C97.7352482,108.178323 97.4552482,102.298323 93.5052482,101.278323 C93.0052482,101.148323 92.6652482,101.588323 92.7352482,102.048323 C93.9552482,110.038323 91.1652482,120.608323 100.615248,124.408323 C103.915248,125.738323 109.345248,125.618323 112.225248,123.268323 C114.545248,121.378323 114.505248,118.238323 115.835248,115.738323 C116.215248,115.028323 115.135248,114.398323 114.755248,115.108323 C113.995248,116.538323 113.725248,118.068323 113.145248,119.568323 C111.535248,123.718323 106.365248,124.708323 102.295248,123.668323 C97.0452482,122.338323 95.0652482,118.098323 94.6152482,113.258323 C94.3552482,110.468323 95.0552482,106.758323 94.2052482,104.108323 C93.5452482,102.048323 95.5252482,101.118323 91.5052482,104.618323 C90.5352482,105.458323 89.6452482,106.178323 88.8952482,107.208323 C86.9552482,109.878323 86.1752482,113.208323 84.4952482,116.028323 C81.6152482,120.868323 76.3052482,125.358323 70.6652482,121.558323 C67.0652482,119.138323 65.4552482,114.618323 64.4052482,110.608323 C64.2152482,109.818323 63.0052482,110.148323 63.2052482,110.928323 L63.2052482,110.928323 Z" id="Path"></path>
            <circle id="Oval" cx="124.255248" cy="76.6683227" r="4.97"></circle>
            <path d="M183.165248,118.998323 C177.875248,130.928323 172.585248,142.858323 167.305248,154.798323 C167.175248,155.078323 167.195248,155.498323 167.525248,155.658323 C175.155248,159.138323 182.785248,162.618323 190.415248,166.098323 C193.685248,167.588323 198.855248,170.928323 201.675248,166.978323 C203.175248,164.878323 203.455248,161.148323 204.065248,158.758323 C205.115248,154.648323 206.165248,150.528323 207.205248,146.418323 C209.385248,137.878323 211.555248,129.328323 213.735248,120.788323 C213.835248,120.378323 213.545248,120.018323 213.135248,119.998323 C206.535248,119.718323 199.945248,119.428323 193.345248,119.148323 C191.775248,119.078323 189.895248,119.328323 188.395248,118.938323 C185.925248,118.288323 185.025248,116.468323 184.045248,114.318323 C182.855248,111.728323 182.225248,108.648323 181.585248,105.878323 C178.805248,93.8183227 178.945248,81.2683227 180.325248,69.0383227 C181.055248,62.5483227 182.135248,56.0883227 183.405248,49.6883227 C184.505248,44.1483227 185.775248,38.4483227 189.145248,33.7983227 C193.115248,28.3283227 201.015248,24.7883227 207.005248,29.3483227 C211.975248,33.1283227 212.245248,40.4483227 212.405248,46.1583227 C212.425248,46.9583227 213.675248,46.9683227 213.655248,46.1583227 C213.435248,38.4083227 212.145248,27.5583227 202.685248,26.0983227 C192.665248,24.5383227 186.215248,34.0983227 183.805248,42.4283227 C180.205248,54.8583227 178.515248,68.6183227 178.165248,81.5383227 C177.805248,94.6783227 179.655248,107.638323 184.885248,119.748323 C184.975248,119.948323 185.225248,120.048323 185.425248,120.058323 C191.365248,120.308323 197.295248,120.568323 203.235248,120.818323 C205.295248,120.908323 210.425248,120.178323 211.595248,121.758323 C212.725248,123.278323 210.555248,128.188323 210.105248,129.948323 C208.655248,135.648323 207.205248,141.338323 205.755248,147.038323 C205.025248,149.888323 204.305248,152.738323 203.575248,155.578323 C202.985248,157.908323 202.725248,162.168323 201.395248,164.118323 C200.145248,165.968323 197.615248,167.308323 195.645248,167.068323 C194.195248,166.888323 192.395248,165.628323 191.035248,165.008323 C188.395248,163.808323 185.755248,162.598323 183.115248,161.398323 C180.475248,160.198323 177.835248,158.988323 175.195248,157.788323 C172.515248,156.568323 169.065248,156.028323 169.565248,152.748323 C169.945248,150.228323 172.085248,147.068323 173.135248,144.698323 C174.325248,142.018323 175.515248,139.328323 176.705248,136.648323 C179.215248,130.978323 181.725248,125.308323 184.245248,119.648323 C184.565248,118.898323 183.485248,118.268323 183.165248,118.998323 L183.165248,118.998323 Z" id="Path"></path>
            <path d="M192.225248,114.548323 C192.315248,97.3483227 191.775248,80.0083227 192.705248,62.8283227 C193.145248,54.6583227 193.935248,45.3283227 198.385248,38.2083227 C201.075248,33.8883227 205.845248,30.3383227 211.185248,30.7783227 C217.505248,31.2883227 222.095248,38.7683227 217.385248,44.0283227 C216.845248,44.6283227 217.735248,45.5083227 218.265248,44.9083227 C222.565248,40.1083227 220.235248,32.3383227 214.245248,30.1483227 C206.335248,27.2583227 198.945248,33.6183227 195.825248,40.3483227 C191.225248,50.2883227 191.285248,62.2883227 191.195248,72.9983227 C191.085248,86.8483227 191.045248,100.698323 190.975188,114.548323 C190.965248,115.358323 192.215248,115.358323 192.225248,114.548323 L192.225248,114.548323 Z" id="Path"></path>
            <path d="M197.075248,117.568323 C201.715248,106.198323 213.195248,98.2083227 221.415248,89.4783227 C229.905248,80.4583227 237.825248,70.8983227 245.105248,60.8783227 C248.945248,55.5883227 258.205248,45.7583227 254.455248,38.3583227 C249.695248,28.9683227 238.185248,39.9783227 232.435248,41.2783227 C231.655248,41.4583227 231.985248,42.6583227 232.765248,42.4883227 C236.865248,41.5583227 239.795248,38.7783227 243.575248,37.1483227 C248.805248,34.8883227 254.935248,37.2683227 253.765248,43.6883227 C253.385248,45.7683227 252.425248,47.7483227 251.385248,49.5683227 C246.065248,58.8883227 238.785248,67.5583227 231.925248,75.7583227 C225.355248,83.6183227 218.365248,91.1183227 211.005248,98.2483227 C205.095248,103.978323 199.045248,109.458323 195.875248,117.238323 C195.565248,117.978323 196.775248,118.308323 197.075248,117.568323 L197.075248,117.568323 Z" id="Path"></path>
            <path d="M211.895248,124.378323 C223.125248,101.718323 245.985248,88.2583227 258.745248,66.7383227 C263.355248,58.9683227 267.265248,46.6283227 259.215248,39.6183227 C254.235248,35.2883227 246.145248,34.3783227 241.945248,40.1083227 C241.465248,40.7583227 242.555248,41.3783227 243.025248,40.7383227 C246.315248,36.2683227 252.265248,36.6583227 256.625248,39.2683227 C262.255248,42.6483227 263.385248,49.4783227 262.085248,55.4883227 C259.885248,65.6883227 252.265248,74.5183227 245.425248,82.0283227 C233.235248,95.4283227 219.005248,107.248323 210.825248,123.748323 C210.455248,124.458323 211.535248,125.098323 211.895248,124.378323 L211.895248,124.378323 Z" id="Path"></path>
            <path d="M200.495248,122.438323 C204.295248,106.998323 205.385248,91.1483227 207.315248,75.4083227 C208.325248,67.1683227 209.575248,58.9283227 211.665248,50.8783227 C212.635248,47.1483227 213.775248,43.4583227 215.155248,39.8583227 C215.955248,37.7683227 216.795248,34.0683227 218.425248,32.4183227 C218.705248,30.6483227 219.485248,30.4283227 220.755248,31.7383227 C221.735248,33.3683227 222.205248,35.1283227 222.195248,37.0283227 C222.235248,37.8283227 223.485248,37.8383227 223.445248,37.0283227 C223.265248,33.7083227 222.155248,31.1283227 219.885248,28.7083227 C219.615248,28.4183227 219.095248,28.4883227 218.905248,28.8383227 C203.395248,57.5083227 206.875248,91.2683227 199.295248,122.108323 C199.095248,122.888323 200.305248,123.218323 200.495248,122.438323 L200.495248,122.438323 Z" id="Path"></path>
            <path d="M200.125248,118.368323 C197.905248,100.438323 200.765248,82.1983227 208.275248,65.7683227 C211.895248,57.8383227 216.585248,50.3583227 222.205248,43.6883227 C223.415248,42.2483227 229.645248,34.2683227 231.135248,34.9183227 C232.425248,35.4783227 232.755248,40.3883227 232.935248,41.6483227 C233.315248,44.4783227 233.355248,47.2383227 233.175248,50.0783227 C233.125248,50.8783227 234.375248,50.8783227 234.425248,50.0783227 C234.795248,44.2083227 234.055248,38.6783227 232.125248,33.1283227 C231.965248,32.6683227 231.445248,32.5283227 231.085248,32.8483227 C207.195248,54.1383227 194.965248,86.6083227 198.895248,118.378323 C198.965248,119.158323 200.225248,119.168323 200.125248,118.368323 L200.125248,118.368323 Z" id="Path"></path>
            <path d="M204.665248,111.488323 C201.125248,99.6883227 211.125248,89.7883227 217.945248,81.4583227 C224.265248,73.7483227 229.915248,65.4783227 234.775248,56.7783227 C237.095248,52.6283227 239.875248,48.1983227 241.335248,43.6683227 C241.925248,41.8383227 242.245248,39.7783227 240.945248,38.1483227 C237.695248,34.0783227 230.485248,37.5983227 227.325248,39.8783227 C226.675248,40.3483227 227.305248,41.4283227 227.955248,40.9583227 C230.255248,39.2983227 235.155248,36.3583227 238.115248,37.8183227 C243.445248,40.4583227 236.575248,50.8583227 234.965248,53.8583227 C230.955248,61.3083227 226.375248,68.4483227 221.285248,75.2083227 C213.555248,85.4783227 199.125248,97.3983227 203.455248,111.828323 C203.695248,112.588323 204.905248,112.258781 204.665248,111.488323 L204.665248,111.488323 Z" id="Path"></path>
            <path d="M172.645248,154.598323 C172.455248,155.058323 172.255248,155.548323 172.285248,156.048323 C172.345248,156.978323 173.155248,157.668323 173.915248,158.208323 C179.665248,162.328323 186.325248,165.178323 193.265248,166.488323 C194.425248,166.708323 195.615248,166.888323 196.775248,166.678323 C198.125248,166.428323 199.335248,165.678323 200.365248,164.768323 C204.665248,160.998323 206.105248,154.918323 206.455248,149.208323 C206.805248,143.498323 206.315248,137.668323 207.785248,132.138323 C208.745248,128.508323 210.435248,124.328323 208.195248,121.318323 C203.065248,114.448323 187.035248,116.938323 182.585248,123.118323 C176.855248,131.028323 176.485248,145.428323 172.645248,154.598323 Z" id="Path"></path>
        </g>
    </g>
</svg>
